<svg version="1.1" id="Layer_1" xmlns="http://www.w3.org/2000/svg" xmlns:xlink="http://www.w3.org/1999/xlink" x="0px" y="0px"
	 width="100%" viewBox="0 0 770 770" enable-background="new 0 0 770 770" xml:space="preserve">
<path fill="none" opacity="1.000000" stroke="none" 
	d="
M531.000000,771.000000 
	C354.000000,771.000000 177.500000,771.000000 1.000000,771.000000 
	C1.000000,514.333313 1.000000,257.666656 1.000000,1.000000 
	C257.666656,1.000000 514.333313,1.000000 771.000000,1.000000 
	C771.000000,257.666656 771.000000,514.333313 771.000000,771.000000 
	C691.166687,771.000000 611.333313,771.000000 531.000000,771.000000 
M591.869751,664.436401 
	C597.869934,657.953979 604.982910,652.177429 609.636658,644.841003 
	C619.085022,629.946167 618.735962,613.181946 614.457703,596.767212 
	C611.357300,584.871216 603.527405,575.709961 593.813354,568.156921 
	C582.230469,559.150757 568.479431,557.513550 554.735901,557.467651 
	C472.071625,557.191162 389.405914,557.330383 306.740692,557.330444 
	C304.868164,557.330444 302.995636,557.330505 301.123108,557.330505 
	C300.955902,556.888672 300.788666,556.446838 300.621429,556.005005 
	C302.012756,554.872498 303.510773,553.847778 304.779785,552.591675 
	C334.680420,522.995667 364.595306,493.413788 394.429047,463.750336 
	C461.852051,396.712158 529.243958,329.642609 596.623840,262.561066 
	C616.702393,242.571396 636.843506,222.640381 656.623657,202.358383 
	C661.099426,197.769119 664.929504,192.193588 667.767334,186.436417 
	C674.072327,173.645432 675.064758,160.538757 671.814880,146.120331 
	C667.897766,128.741699 658.187317,117.050980 643.355225,109.002159 
	C630.702209,102.135857 617.403564,100.886421 602.977722,104.246590 
	C592.297119,106.734383 583.214966,111.089745 575.333557,118.179329 
	C569.218140,123.680359 563.718811,129.864075 557.914185,135.713150 
	C506.292175,187.730362 454.684448,239.761765 403.023529,291.740295 
	C386.968475,307.894104 370.731720,323.867157 354.633728,339.978485 
	C310.813538,383.834900 267.024445,427.722351 223.213669,471.588165 
	C222.017487,472.785858 220.714905,473.877258 218.881271,475.547028 
	C218.881271,472.869324 218.881287,471.074188 218.881287,469.279053 
	C218.881256,387.113800 218.903244,304.948486 218.834351,222.783310 
	C218.829468,216.971848 218.729935,211.055435 217.686172,205.369247 
	C214.354309,187.218079 204.157776,173.708481 187.905685,165.234970 
	C175.237350,158.629959 161.476059,157.636887 147.577530,160.395386 
	C131.781479,163.530518 119.576515,172.297226 111.094261,185.854401 
	C104.692772,196.085907 103.396286,207.352966 103.432411,219.540009 
	C103.821701,350.869934 103.665497,482.201447 103.714058,613.532532 
	C103.715767,618.152588 104.203583,622.780701 104.622719,627.390747 
	C105.816223,640.518005 112.580132,650.522217 121.899956,659.425781 
	C133.565491,670.570312 148.015915,673.531372 163.085388,673.553955 
	C293.916199,673.750183 424.747406,673.675110 555.578491,673.633606 
	C560.073303,673.632202 564.774109,673.879578 569.017578,672.705383 
	C576.575989,670.613647 583.857666,667.522156 591.869751,664.436401 
z"/>
<path fill="#8d70ff" opacity="1.000000" stroke="none" 
	d="
M591.562439,664.642578 
	C583.857666,667.522156 576.575989,670.613647 569.017578,672.705383 
	C564.774109,673.879578 560.073303,673.632202 555.578491,673.633606 
	C424.747406,673.675110 293.916199,673.750183 163.085388,673.553955 
	C148.015915,673.531372 133.565491,670.570312 121.899956,659.425781 
	C112.580132,650.522217 105.816223,640.518005 104.622719,627.390747 
	C104.203583,622.780701 103.715767,618.152588 103.714058,613.532532 
	C103.665497,482.201447 103.821701,350.869934 103.432411,219.540009 
	C103.396286,207.352966 104.692772,196.085907 111.094261,185.854401 
	C119.576515,172.297226 131.781479,163.530518 147.577530,160.395386 
	C161.476059,157.636887 175.237350,158.629959 187.905685,165.234970 
	C204.157776,173.708481 214.354309,187.218079 217.686172,205.369247 
	C218.729935,211.055435 218.829468,216.971848 218.834351,222.783310 
	C218.903244,304.948486 218.881256,387.113800 218.881287,469.279053 
	C218.881287,471.074188 218.881271,472.869324 218.881271,475.547028 
	C220.714905,473.877258 222.017487,472.785858 223.213669,471.588165 
	C267.024445,427.722351 310.813538,383.834900 354.633728,339.978485 
	C370.731720,323.867157 386.968475,307.894104 403.023529,291.740295 
	C454.684448,239.761765 506.292175,187.730362 557.914185,135.713150 
	C563.718811,129.864075 569.218140,123.680359 575.333557,118.179329 
	C583.214966,111.089745 592.297119,106.734383 602.977722,104.246590 
	C617.403564,100.886421 630.702209,102.135857 643.355225,109.002159 
	C658.187317,117.050980 667.897766,128.741699 671.814880,146.120331 
	C675.064758,160.538757 674.072327,173.645432 667.767334,186.436417 
	C664.929504,192.193588 661.099426,197.769119 656.623657,202.358383 
	C636.843506,222.640381 616.702393,242.571396 596.623840,262.561066 
	C529.243958,329.642609 461.852051,396.712158 394.429047,463.750336 
	C364.595306,493.413788 334.680420,522.995667 304.779785,552.591675 
	C303.510773,553.847778 302.012756,554.872498 300.621429,556.005005 
	C300.788666,556.446838 300.955902,556.888672 301.123108,557.330505 
	C302.995636,557.330505 304.868164,557.330444 306.740692,557.330444 
	C389.405914,557.330383 472.071625,557.191162 554.735901,557.467651 
	C568.479431,557.513550 582.230469,559.150757 593.813354,568.156921 
	C603.527405,575.709961 611.357300,584.871216 614.457703,596.767212 
	C618.735962,613.181946 619.085022,629.946167 609.636658,644.841003 
	C604.982910,652.177429 597.869934,657.953979 591.562439,664.642578 
z"/>
</svg>