<svg width="46" height="43" viewBox="0 0 10 9" fill="none" xmlns="http://www.w3.org/2000/svg">
<path d="M8.3989 1.68464C7.98127 1.26669 7.42676 1.03665 6.83375 1.03372C6.24074 1.03079 5.68229 1.25701 5.26054 1.67081L5.04027 1.88693L4.81877 1.66526C4.40113 1.24731 3.84325 1.01388 3.25024 1.01095C2.65893 1.00803 2.10047 1.23426 1.68043 1.64638C1.25868 2.06018 1.02486 2.61129 1.02366 3.19891C1.02075 3.78652 1.25081 4.33824 1.66845 4.75619L4.84386 7.93395C4.88782 7.97795 4.94717 8.00181 5.00494 8.0021C5.06272 8.00238 5.1223 7.98079 5.16669 7.93723L8.38013 4.7961C8.80187 4.3823 9.03569 3.83119 9.03859 3.24358C9.0432 2.65598 8.81654 2.10259 8.3989 1.68464ZM8.05887 4.47292L5.00765 7.4549L6 4C5.66859 3.66835 5.99769 3.96638 6 3.5C6.00231 3.03362 4.31138 1.64638 4 1.5C4.81877 1.01095 2.77901 1.46492 3.24798 1.46724C3.71865 1.46956 4.16123 1.65359 4.49264 1.98524L4.87477 2.36766C4.96438 2.45734 4.9095 7.58879 5 7.5C5.33467 7.17164 6.03103 4.99768 6.5 5C6.96897 5.00232 5.2984 2.91361 5.62981 3.24358C5.96122 3.57523 4.84616 6.98851 4.84386 7.4549C4.84325 7.92129 8.39354 4.14456 8.05887 4.47292Z" fill="#DA526A"/>
</svg>
