<svg width="80%" height="1004" viewBox="0 0 46 43" fill="none" xmlns="http://www.w3.org/2000/svg">
<path d="M35.8921 10.8167C35.0739 11.3802 34.2629 11.9548 33.4532 12.5314C32.2213 10.8576 30.353 9.9003 28.2763 10.0083C25.697 10.1421 23.8164 12.2176 22.6431 14.4692C21.2463 12.3702 19.169 10.5292 16.5998 10.6825C14.2627 10.8218 12.3245 12.2719 11.3458 14.4755C10.0735 17.3405 10.8794 20.8015 12.5513 23.2988C13.0673 24.0699 13.3864 24.8326 14 25.5C13.1361 26.0997 12.5138 26.624 11.6158 27.1654C11.6431 26.7385 11.6618 26.3108 11.6645 25.8821C11.6711 24.868 10.1614 24.8686 10.1547 25.8821C10.1489 26.7497 10.0789 27.6128 10.0037 28.4763C9.96655 28.9014 10.2135 29.1412 10.5177 29.2066C10.5745 29.2478 10.636 29.2856 10.7091 29.3132C11.4657 29.6 12.2206 29.8865 12.9443 30.2559C13.815 30.7007 14.5802 29.3445 13.7063 28.8983C13.3433 28.7129 12.9725 28.5467 12.5983 28.388C13.538 27.8134 14.456 27.2023 15.3596 26.5663C17.7302 28.8176 20.5122 30.6306 22.9529 32.7981C23.1876 33.0063 23.4557 33.038 23.6902 32.9633C23.8772 32.9566 24.0671 32.8807 24.2274 32.7041C27.3949 29.2178 31.3409 26.3827 33.5955 22.1024C34.8864 19.6524 35.3632 16.4786 34.2285 13.8802C35.0337 13.3069 35.8405 12.7352 36.6544 12.1749C37.4623 11.618 36.7068 10.2558 35.8921 10.8167ZM31 23C28.9141 25.9818 25.9905 28.3787 23.5 31C20.7608 28.6802 17.8724 26.7245 15.5 24C13.6747 21.9041 12.0349 19.2384 12.7602 16.2777C13.2293 14.3626 14.4602 12.6218 16.5 12.5C19.1287 12.3432 20.6135 14.0587 21.8108 16.2777C22.0103 16.6476 22.5332 16.8317 22.8324 16.7352C23.0985 16.7427 23.6609 16.6116 23.7981 16.2777C24.7609 13.9381 26.16 12.0088 28.7896 11.8723C30.2141 11.7983 31.1657 12.3746 32 13.5C30.8786 14.2985 29.9308 15.0321 28.7896 15.7997C28.7425 15.4166 28.4246 15.112 28.0454 15.112C27.6338 15.112 27.2905 15.4696 27.2905 15.8981V17.0774C27.2905 17.2331 27.3366 17.3786 27.4144 17.5019C27.4996 17.722 27.6884 17.8921 27.9204 17.9928C27.783 17.9334 28.0313 18.0557 28.0555 18.0685C28.1339 18.1117 28.2106 18.1591 28.2872 18.2059C28.4308 18.294 28.5727 18.3843 28.7213 18.4639C29.0875 18.6598 29.5381 18.566 29.7539 18.1819C29.9391 17.8525 29.8589 17.3795 29.5546 17.1563C30.6936 16.3897 31.8168 15.5978 32.9361 14.8003C32.9673 14.8772 32.8008 14.8003 32.8008 14.8003C33.8259 17.6634 32.5994 20.7129 31 23Z" fill="url(#paint0_linear_1_22)"/>
<defs>
<linearGradient id="paint0_linear_1_22" x1="12.8292" y1="12.5401" x2="29.8281" y2="29.5153" gradientUnits="userSpaceOnUse">
<stop stop-color="#7245DD"/>
<stop offset="0.333333" stop-color="#C536A0"/>
<stop offset="0.484375" stop-color="#E94680"/>
<stop offset="0.677083" stop-color="#F9805F"/>
<stop offset="0.864583" stop-color="#FCC455"/>
<stop offset="1" stop-color="#FBCC64"/>
</linearGradient>
</defs>
</svg>
